<svg xmlns="http://www.w3.org/2000/svg" width="1480" height="650" viewBox="0 0 1480 650" role="img" aria-labelledby="title desc">
  <title id="title">Voltura Air release and artifact production flow</title>
  <desc id="desc">A linear release pipeline runs from a prepared commit through workflow validation, tests, packaging, artifacts, and a draft release. Supply-chain inputs and release authority enter their specific stages.</desc>
  <defs>
    <marker id="arrow" markerWidth="10" markerHeight="10" refX="9" refY="5" orient="auto" markerUnits="strokeWidth"><path d="M0 0 L10 5 L0 10 Z" fill="#344054"/></marker>
    <marker id="risk-arrow" markerWidth="10" markerHeight="10" refX="9" refY="5" orient="auto" markerUnits="strokeWidth"><path d="M0 0 L10 5 L0 10 Z" fill="#a15c00"/></marker>
    <style>
      text{font-family:Segoe UI,Arial,sans-serif;fill:#101828;letter-spacing:0}.bg{fill:#f7f9fc}.box{fill:#fff;stroke:#344054;stroke-width:2}.risk{fill:#fff7e6;stroke:#a15c00;stroke-width:2}.out{fill:#eef8f1;stroke:#027a48;stroke-width:2.5}.arrow{stroke:#344054;stroke-width:2.4;fill:none;marker-end:url(#arrow)}.risk-path{stroke:#a15c00;stroke-width:2.2;stroke-dasharray:7 6;fill:none;marker-end:url(#risk-arrow)}.title{font-size:28px;font-weight:700}.subtitle{font-size:14px;fill:#475467}.label{font-size:16px;font-weight:700}.small{font-size:13px;fill:#475467}.edge{font-size:12px;font-weight:600;fill:#475467;paint-order:stroke;stroke:#f7f9fc;stroke-width:6px;stroke-linejoin:round}
    </style>
  </defs>

  <rect class="bg" width="1480" height="650"/>
  <text class="title" x="40" y="42">Release and Artifact-Production Flow</text>
  <text class="subtitle" x="40" y="68">Every trust input connects to the stage it influences; publication remains a separate maintainer decision.</text>

  <rect class="risk" x="275" y="104" width="210" height="90" rx="10"/>
  <text class="label" x="380" y="140" text-anchor="middle">GitHub Actions</text>
  <text class="small" x="380" y="166" text-anchor="middle">third-party action trust</text>

  <rect class="risk" x="745" y="104" width="210" height="90" rx="10"/>
  <text class="label" x="850" y="140" text-anchor="middle">Build tooling</text>
  <text class="small" x="850" y="166" text-anchor="middle">NSIS + build-time packages</text>

  <rect class="box" x="40" y="274" width="200" height="108" rx="10"/>
  <text class="label" x="140" y="312" text-anchor="middle">Prepared commit</text>
  <text class="small" x="140" y="338" text-anchor="middle">main branch</text>
  <text class="small" x="140" y="360" text-anchor="middle">version files committed</text>

  <rect class="box" x="275" y="274" width="210" height="108" rx="10"/>
  <text class="label" x="380" y="312" text-anchor="middle">Release workflow</text>
  <text class="small" x="380" y="338" text-anchor="middle">version bump on main</text>
  <text class="small" x="380" y="360" text-anchor="middle">or manual retry</text>

  <rect class="box" x="520" y="274" width="190" height="108" rx="10"/>
  <text class="label" x="615" y="312" text-anchor="middle">Validation</text>
  <text class="small" x="615" y="338" text-anchor="middle">npm + host tests</text>
  <text class="small" x="615" y="360" text-anchor="middle">script + doc checks</text>

  <rect class="box" x="745" y="274" width="210" height="108" rx="10"/>
  <text class="label" x="850" y="312" text-anchor="middle">Packaging</text>
  <text class="small" x="850" y="338" text-anchor="middle">mobile + .NET + watchdog</text>
  <text class="small" x="850" y="360" text-anchor="middle">ZIP + NSIS installers</text>

  <rect class="out" x="990" y="274" width="200" height="108" rx="10"/>
  <text class="label" x="1090" y="312" text-anchor="middle">Release artifacts</text>
  <text class="small" x="1090" y="338" text-anchor="middle">artifacts / publish</text>
  <text class="small" x="1090" y="360" text-anchor="middle">ZIP + installers</text>

  <rect class="out" x="1225" y="274" width="210" height="108" rx="10"/>
  <text class="label" x="1330" y="312" text-anchor="middle">Draft release</text>
  <text class="small" x="1330" y="338" text-anchor="middle">manual review</text>
  <text class="small" x="1330" y="360" text-anchor="middle">before publication</text>

  <path class="arrow" d="M240 328 H275"/>
  <path class="arrow" d="M485 328 H520"/>
  <path class="arrow" d="M710 328 H745"/>
  <path class="arrow" d="M955 328 H990"/>
  <path class="arrow" d="M1190 328 H1225"/>

  <path class="risk-path" d="M380 194 V274"/>
  <text class="edge" x="392" y="238">workflow dependency</text>
  <path class="risk-path" d="M850 194 V274"/>
  <text class="edge" x="862" y="238">tool dependency</text>

  <rect class="risk" x="1225" y="478" width="210" height="90" rx="10"/>
  <text class="label" x="1330" y="514" text-anchor="middle">Maintainer</text>
  <text class="small" x="1330" y="540" text-anchor="middle">publication authority</text>
  <path class="risk-path" d="M1330 478 V382"/>
  <text class="edge" x="1342" y="438">approve / publish</text>
</svg>
